<svg xmlns="http://www.w3.org/2000/svg" style="border: 0 !important; clip: rect(0 0 0 0) !important; height: 1px !important; margin: -1px !important; overflow: hidden !important; padding: 0 !important; position: absolute !important; width: 1px !important;" class="root-svg-symbols-element">
    <symbol id="check" viewBox="0 0 1792 1792">
      <path d="M1671 566q0 40-28 68l-724 724-136 136q-28 28-68 28t-68-28l-136-136-362-362q-28-28-28-68t28-68l136-136q28-28 68-28t68 28l294 295 656-657q28-28 68-28t68 28l136 136q28 28 28 68z"/>
    </symbol>
    <symbol id="close" viewBox="0 0 1792 1792">
      <path d="M1490 1322q0 40-28 68l-136 136q-28 28-68 28t-68-28l-294-294-294 294q-28 28-68 28t-68-28l-136-136q-28-28-28-68t28-68l294-294-294-294q-28-28-28-68t28-68l136-136q28-28 68-28t68 28l294 294 294-294q28-28 68-28t68 28l136 136q28 28 28 68t-28 68l-294 294 294 294q28 28 28 68z"/>
    </symbol>
    <symbol id="edit" viewBox="0 0 1792 1792">
      <path d="M888 1184l116-116-152-152-116 116v56h96v96h56zm440-720q-16-16-33 1l-350 350q-17 17-1 33t33-1l350-350q17-17 1-33zm80 594v190q0 119-84.5 203.5t-203.5 84.5h-832q-119 0-203.5-84.5t-84.5-203.5v-832q0-119 84.5-203.5t203.5-84.5h832q63 0 117 25 15 7 18 23 3 17-9 29l-49 49q-14 14-32 8-23-6-45-6h-832q-66 0-113 47t-47 113v832q0 66 47 113t113 47h832q66 0 113-47t47-113v-126q0-13 9-22l64-64q15-15 35-7t20 29zm-96-738l288 288-672 672h-288v-288zm444 132l-92 92-288-288 92-92q28-28 68-28t68 28l152 152q28 28 28 68t-28 68z"/>
    </symbol>
    <symbol id="exit" viewBox="0 0 1792 1792">
      <path d="M704 1440q0 4 1 20t.5 26.5-3 23.5-10 19.5-20.5 6.5h-320q-119 0-203.5-84.5t-84.5-203.5v-704q0-119 84.5-203.5t203.5-84.5h320q13 0 22.5 9.5t9.5 22.5q0 4 1 20t.5 26.5-3 23.5-10 19.5-20.5 6.5h-320q-66 0-113 47t-47 113v704q0 66 47 113t113 47h312l11.5 1 11.5 3 8 5.5 7 9 2 13.5zm928-544q0 26-19 45l-544 544q-19 19-45 19t-45-19-19-45v-288h-448q-26 0-45-19t-19-45v-384q0-26 19-45t45-19h448v-288q0-26 19-45t45-19 45 19l544 544q19 19 19 45z"/>
    </symbol>
    <symbol id="lock" viewBox="0 0 1792 1792">
      <path d="M640 768h512v-192q0-106-75-181t-181-75-181 75-75 181v192zm832 96v576q0 40-28 68t-68 28h-960q-40 0-68-28t-28-68v-576q0-40 28-68t68-28h32v-192q0-184 132-316t316-132 316 132 132 316v192h32q40 0 68 28t28 68z"/>
    </symbol>
    <symbol id="menu" viewBox="0 0 1792 1792">
      <path d="M1664 1344v128q0 26-19 45t-45 19h-1408q-26 0-45-19t-19-45v-128q0-26 19-45t45-19h1408q26 0 45 19t19 45zm0-512v128q0 26-19 45t-45 19h-1408q-26 0-45-19t-19-45v-128q0-26 19-45t45-19h1408q26 0 45 19t19 45zm0-512v128q0 26-19 45t-45 19h-1408q-26 0-45-19t-19-45v-128q0-26 19-45t45-19h1408q26 0 45 19t19 45z"/>
    </symbol>
    <symbol id="reset" viewBox="0 0 1792 1792">
      <path d="M1639 1056q0 5-1 7-64 268-268 434.5t-478 166.5q-146 0-282.5-55t-243.5-157l-129 129q-19 19-45 19t-45-19-19-45v-448q0-26 19-45t45-19h448q26 0 45 19t19 45-19 45l-137 137q71 66 161 102t187 36q134 0 250-65t186-179q11-17 53-117 8-23 30-23h192q13 0 22.5 9.5t9.5 22.5zm25-800v448q0 26-19 45t-45 19h-448q-26 0-45-19t-19-45 19-45l138-138q-148-137-349-137-134 0-250 65t-186 179q-11 17-53 117-8 23-30 23h-199q-13 0-22.5-9.5t-9.5-22.5v-7q65-268 270-434.5t480-166.5q146 0 284 55.5t245 156.5l130-129q19-19 45-19t45 19 19 45z"/>
    </symbol>
    <symbol id="settings" viewBox="0 0 1792 1792">
      <path d="M832 0l960 384v128h-128q0 26-20.5 45t-48.5 19h-1526q-28 0-48.5-19t-20.5-45h-128v-128zm-704 640h256v768h128v-768h256v768h128v-768h256v768h128v-768h256v768h59q28 0 48.5 19t20.5 45v64h-1664v-64q0-26 20.5-45t48.5-19h59v-768zm1595 960q28 0 48.5 19t20.5 45v128h-1920v-128q0-26 20.5-45t48.5-19h1782z"/>
    </symbol>
    <symbol id="spinner" viewBox="0 0 1792 1792">
      <path d="M526 1394q0 53-37.5 90.5t-90.5 37.5q-52 0-90-38t-38-90q0-53 37.5-90.5t90.5-37.5 90.5 37.5 37.5 90.5zm498 206q0 53-37.5 90.5t-90.5 37.5-90.5-37.5-37.5-90.5 37.5-90.5 90.5-37.5 90.5 37.5 37.5 90.5zm-704-704q0 53-37.5 90.5t-90.5 37.5-90.5-37.5-37.5-90.5 37.5-90.5 90.5-37.5 90.5 37.5 37.5 90.5zm1202 498q0 52-38 90t-90 38q-53 0-90.5-37.5t-37.5-90.5 37.5-90.5 90.5-37.5 90.5 37.5 37.5 90.5zm-964-996q0 66-47 113t-113 47-113-47-47-113 47-113 113-47 113 47 47 113zm1170 498q0 53-37.5 90.5t-90.5 37.5-90.5-37.5-37.5-90.5 37.5-90.5 90.5-37.5 90.5 37.5 37.5 90.5zm-640-704q0 80-56 136t-136 56-136-56-56-136 56-136 136-56 136 56 56 136zm530 206q0 93-66 158.5t-158 65.5q-93 0-158.5-65.5t-65.5-158.5q0-92 65.5-158t158.5-66q92 0 158 66t66 158z"/>
    </symbol>
    <symbol id="thumb-tack" viewBox="0 0 1792 1792">
      <path d="M800 864v-448q0-14-9-23t-23-9-23 9-9 23v448q0 14 9 23t23 9 23-9 9-23zm672 352q0 26-19 45t-45 19h-429l-51 483q-2 12-10.5 20.5t-20.5 8.5h-1q-27 0-32-27l-76-485h-404q-26 0-45-19t-19-45q0-123 78.5-221.5t177.5-98.5v-512q-52 0-90-38t-38-90 38-90 90-38h640q52 0 90 38t38 90-38 90-90 38v512q99 0 177.5 98.5t78.5 221.5z"/>
    </symbol>
    <symbol id="toggle-off" viewBox="0 0 1792 1792">
      <path d="M1024 896q0-104-40.5-198.5t-109.5-163.5-163.5-109.5-198.5-40.5-198.5 40.5-163.5 109.5-109.5 163.5-40.5 198.5 40.5 198.5 109.5 163.5 163.5 109.5 198.5 40.5 198.5-40.5 163.5-109.5 109.5-163.5 40.5-198.5zm768 0q0-104-40.5-198.5t-109.5-163.5-163.5-109.5-198.5-40.5h-386q119 90 188.5 224t69.5 288-69.5 288-188.5 224h386q104 0 198.5-40.5t163.5-109.5 109.5-163.5 40.5-198.5zm128 0q0 130-51 248.5t-136.5 204-204 136.5-248.5 51h-768q-130 0-248.5-51t-204-136.5-136.5-204-51-248.5 51-248.5 136.5-204 204-136.5 248.5-51h768q130 0 248.5 51t204 136.5 136.5 204 51 248.5z"/>
    </symbol>
    <symbol id="toggle-on" viewBox="0 0 1792 1792">
      <path d="M-128 896q0-130 51-248.5t136.5-204 204-136.5 248.5-51h768q130 0 248.5 51t204 136.5 136.5 204 51 248.5-51 248.5-136.5 204-204 136.5-248.5 51h-768q-130 0-248.5-51t-204-136.5-136.5-204-51-248.5zm1408 512q104 0 198.5-40.5t163.5-109.5 109.5-163.5 40.5-198.5-40.5-198.5-109.5-163.5-163.5-109.5-198.5-40.5-198.5 40.5-163.5 109.5-109.5 163.5-40.5 198.5 40.5 198.5 109.5 163.5 163.5 109.5 198.5 40.5z"/>
    </symbol>
    <symbol id="unlock" viewBox="0 0 1792 1792">
      <path d="M1728 576v256q0 26-19 45t-45 19h-64q-26 0-45-19t-19-45v-256q0-106-75-181t-181-75-181 75-75 181v192h96q40 0 68 28t28 68v576q0 40-28 68t-68 28h-960q-40 0-68-28t-28-68v-576q0-40 28-68t68-28h672v-192q0-185 131.5-316.5t316.5-131.5 316.5 131.5 131.5 316.5z"/>
    </symbol></svg>